<?xml version="1.0" encoding="utf-8"?>
<!-- Generator: Adobe Illustrator 13.0.1, SVG Export Plug-In  -->
<!DOCTYPE svg PUBLIC "-//W3C//DTD SVG 1.1//EN" "http://www.w3.org/Graphics/SVG/1.1/DTD/svg11.dtd" [
	<!ENTITY ns_flows "http://ns.adobe.com/Flows/1.0/">
]>
<svg version="1.1"
	 xmlns="http://www.w3.org/2000/svg" xmlns:xlink="http://www.w3.org/1999/xlink" xmlns:a="http://ns.adobe.com/AdobeSVGViewerExtensions/3.0/"
	 x="0px" y="0px" width="284px" height="39px" viewBox="0 -0.004 284 39" enable-background="new 0 -0.004 284 39"
	 xml:space="preserve">
<defs>
</defs>
<polygon fill="#FFFFFF" points="108.873,5.509 108.873,16.169 96.785,16.169 96.785,5.509 90.123,5.509 90.123,33.49 96.785,33.49 
	96.785,22.239 108.873,22.239 108.873,33.49 115.533,33.49 115.533,5.509 115.195,5.509 "/>
<polygon fill="#FFFFFF" points="139.949,5.509 132.979,16.589 126.017,5.509 118.157,5.509 129.657,23.799 129.657,33.49 
	136.312,33.49 136.312,23.799 147.813,5.509 147.199,5.509 "/>
<g>
	<defs>
		<rect id="SVGID_1_" width="283.46" height="38.996"/>
	</defs>
	<clipPath id="SVGID_2_">
		<use xlink:href="#SVGID_1_"  overflow="visible"/>
	</clipPath>
	<path clip-path="url(#SVGID_2_)" fill="#FFFFFF" d="M169.239,5.509v20.511c0,0.78-0.588,1.409-1.417,1.409h-10.677V5.509h-6.66
		V33.49h19.681c1.755,0,3.162-0.52,4.188-1.541c1.019-1.025,1.534-2.432,1.534-4.175V5.509h-0.332H169.239z"/>
	<path clip-path="url(#SVGID_2_)" fill="#FFFFFF" d="M201.751,5.509h-19.687V33.49h6.658V11.568h10.685
		c0.857,0,1.411,0.671,1.411,1.401V33.49h6.651V11.23c0-1.752-0.52-3.155-1.534-4.177C204.901,6.025,203.502,5.509,201.751,5.509"/>
	<path clip-path="url(#SVGID_2_)" fill="#FFFFFF" d="M233.328,5.51h-19.684v27.98h19.684c1.748,0,3.15-0.52,4.175-1.541
		c1.025-1.025,1.542-2.432,1.542-4.176V11.23c0-1.752-0.517-3.155-1.542-4.182C236.477,6.025,235.07,5.51,233.328,5.51
		 M232.392,13.016v12.967c0,0.755-0.555,1.447-1.423,1.447h-10.675V11.567h10.633C231.801,11.567,232.392,12.179,232.392,13.016"/>
	<path clip-path="url(#SVGID_2_)" fill="#FFFFFF" d="M250.647,5.509c-1.746,0-3.159,0.517-4.177,1.544
		c-1.027,1.025-1.54,2.43-1.54,4.178V33.49h6.645v-8.656h12.098v8.656h6.651V5.509H250.647z M263.673,11.568v7.208h-12.098V12.99
		c0-0.691,0.535-1.422,1.42-1.422H263.673z"/>
	<rect x="276.807" y="5.509" clip-path="url(#SVGID_2_)" fill="#FFFFFF" width="6.658" height="27.981"/>
	<path clip-path="url(#SVGID_2_)" fill="#FFFFFF" d="M38.067,38.991c21.025,0,38.067-8.727,38.067-19.496
		c0-10.764-17.042-19.49-38.067-19.49C17.043,0.006,0,8.732,0,19.496C0,30.265,17.043,38.991,38.067,38.991 M45.232,29.426
		c-0.634,1.474-1.727,4.618-4.238,5.869c-0.758,0.374-1.698,0.558-2.54,0.583c-0.189,0.005-0.323,0-0.38,0
		c-7.028,0-13.566-0.976-19.039-2.643c-0.047-0.013-0.173-0.063-0.212-0.078c-0.504-0.167-0.762-0.403-0.762-0.688
		c0-0.256,0.13-0.443,0.312-0.62c0.075-0.078,0.193-0.175,0.344-0.307c1.267-1.055,5.072-3.814,12.244-6.558
		c2.516-0.96,5.66-2.157,8.957-2.853C41.849,21.725,49.017,20.629,45.232,29.426 M64.465,9.778c0.135-0.237,0.316-0.434,0.642-0.455
		c0.179-0.013,0.424,0.031,0.792,0.259c4.471,2.752,7.12,6.186,7.12,9.908c0,6.724-8.644,12.5-21,15.028
		c-0.794,0.155-1.321,0.151-1.502-0.049c-0.123-0.125-0.156-0.34,0-0.604c0.078-0.137,0.167-0.262,0.33-0.458
		c6.731-7.936,11.856-19.634,13.313-23.014C64.271,10.16,64.38,9.93,64.465,9.778 M31.015,9.528
		c0.635-1.468,1.728-4.613,4.238-5.863c0.762-0.378,1.698-0.559,2.54-0.583c0.188-0.007,0.323,0,0.377,0
		c7.028,0,13.567,0.972,19.047,2.644c0.04,0.012,0.168,0.062,0.207,0.077c0.505,0.168,0.766,0.4,0.766,0.689
		c0,0.25-0.135,0.439-0.315,0.618c-0.077,0.076-0.193,0.176-0.347,0.305c-1.263,1.058-5.07,3.811-12.24,6.555
		c-2.518,0.964-5.662,2.159-8.955,2.856C34.396,17.235,27.23,18.325,31.015,9.528 M24.111,4.469c0.795-0.153,1.319-0.152,1.507,0.05
		c0.111,0.127,0.144,0.337-0.002,0.599c-0.087,0.141-0.174,0.266-0.332,0.456c-6.732,7.935-11.857,19.638-13.315,23.019
		c-0.108,0.232-0.219,0.463-0.308,0.614c-0.132,0.237-0.314,0.437-0.637,0.456c-0.18,0.011-0.423-0.032-0.795-0.258
		c-4.467-2.755-7.123-6.188-7.123-9.912C3.106,12.771,11.75,6.992,24.111,4.469"/>
</g>
</svg>
